<?xml version="1.0" encoding="UTF-8"?>
<svg version="1.1" xmlns="http://www.w3.org/2000/svg" width="1051" height="1025">
<path d="M0 0 C1.22072582 -0.00320648 2.44145164 -0.00641296 3.69916916 -0.0097166 C7.05774291 -0.01654002 10.41609218 -0.01454476 13.77465291 -0.00866088 C17.43995935 -0.00446195 21.10524619 -0.01190863 24.77054775 -0.01781338 C31.18484896 -0.02654996 37.59911824 -0.02789657 44.01342392 -0.02431011 C53.55222229 -0.01899079 63.09098989 -0.0251108 72.62978492 -0.03339304 C90.66001251 -0.04861826 108.69022603 -0.05033959 126.7204587 -0.04787002 C140.64682478 -0.04603587 154.57318627 -0.04779952 168.49955177 -0.05209446 C170.50183732 -0.05269687 172.50412287 -0.05329807 174.50640842 -0.05389806 C177.52384815 -0.05480534 180.54128788 -0.05571401 183.55872762 -0.05663041 C211.60738926 -0.0650579 239.65604918 -0.0693971 267.70471191 -0.06522369 C268.76169413 -0.06506732 269.81867634 -0.06491094 270.90768832 -0.06474983 C276.26462333 -0.06394407 281.62155834 -0.0630983 286.97849335 -0.06223653 C288.5742849 -0.06197989 288.5742849 -0.06197989 290.20231467 -0.06171808 C292.35369982 -0.06137142 294.50508497 -0.06102289 296.65647013 -0.06067249 C330.12443937 -0.0553165 363.59238227 -0.06324307 397.0603466 -0.08170605 C434.68241045 -0.10243649 472.30445798 -0.1131467 509.92652786 -0.10913056 C513.94056439 -0.10873523 517.95460093 -0.10837368 521.96863747 -0.10803318 C523.45111661 -0.10789708 523.45111661 -0.10789708 524.96354483 -0.10775824 C539.86349602 -0.10659374 554.76343069 -0.11322934 569.66337776 -0.1238451 C586.61641024 -0.13591147 603.5694064 -0.13743957 620.52243944 -0.12505493 C630.00091527 -0.11843997 639.47930421 -0.12002584 648.95777305 -0.13364345 C655.30089256 -0.14191833 661.64394732 -0.13915114 667.98706162 -0.12766818 C671.59335799 -0.12144168 675.19948544 -0.11973249 678.80577172 -0.13153151 C698.68072446 -0.19215055 717.58986897 0.85969828 736.76054192 6.44197559 C737.81048332 6.74313282 738.86042473 7.04429005 739.94218254 7.35457325 C749.43024888 10.17233792 758.29589783 13.83055733 767.13554192 18.25447559 C767.85677238 18.60767872 768.57800285 18.96088184 769.32108879 19.32478809 C779.64322966 24.40814534 789.01132311 30.25701976 798.13554192 37.25447559 C799.00823723 37.90287403 799.88093254 38.55127247 800.78007317 39.21931934 C815.91763061 50.96197143 829.51901871 65.3172883 840.13554192 81.25447559 C840.53386223 81.8511504 840.93218254 82.4478252 841.34257317 83.06258106 C859.68352497 111.04173371 871.52212169 144.95993118 871.39281082 178.59427834 C871.3963169 179.77044259 871.39982297 180.94660684 871.40343529 182.15841243 C871.41108695 185.39666901 871.40992275 188.63477775 871.40487975 191.87303477 C871.40159066 195.40627085 871.40991422 198.93948373 871.4166981 202.47271222 C871.42697234 208.65679395 871.42984638 214.84084439 871.42778587 221.02493382 C871.42472911 230.22163409 871.4330749 239.41829987 871.44353512 248.61499343 C871.46285678 266.00007188 871.4685027 283.38513853 871.46964924 300.77022646 C871.47056921 314.20125433 871.47469049 327.63227758 871.48105049 341.06330395 C871.48284566 344.93298361 871.48462529 348.80266328 871.48640025 352.67234296 C871.48684234 353.63443744 871.48728444 354.59653192 871.48773993 355.58778078 C871.50004537 382.64368002 871.50794138 409.69957765 871.50705338 436.75547981 C871.50702222 437.77515566 871.50699106 438.79483151 871.50695896 439.84540663 C871.50679275 445.01322688 871.50659467 450.18104714 871.50638954 455.34886739 C871.50632971 456.88831004 871.50632971 456.88831004 871.50626866 458.45885253 C871.50618779 460.53427237 871.50610419 462.60969222 871.50601788 464.68511206 C871.50479303 496.95800713 871.51979472 529.23086014 871.54716301 561.50374317 C871.57791996 597.78725374 871.59509327 634.07073668 871.59323657 670.3542611 C871.59308731 674.22739867 871.59298989 678.10053624 871.59292793 681.97367382 C871.59289297 683.40410003 871.59289297 683.40410003 871.5928573 684.86342375 C871.59279589 700.17512644 871.6055395 715.48679247 871.62279246 730.79848428 C871.63979086 746.20354244 871.64169001 761.60854726 871.62857382 777.01360963 C871.62121217 786.15133485 871.62475871 795.28889751 871.6444585 804.42660533 C871.65653336 810.5477292 871.65378492 816.66873641 871.6395175 822.78985512 C871.63181705 826.2661368 871.63001798 829.74210592 871.64643221 833.21836451 C871.85134058 887.18310159 853.29061141 934.62631475 815.51054192 973.25447559 C800.59903788 988.14734801 783.00897116 999.33636334 764.04960442 1008.34480762 C762.32235686 1009.16569084 760.60340348 1010.0039712 758.88554192 1010.84431934 C751.50547477 1014.25398272 743.93180579 1016.6740694 736.13554192 1018.94197559 C735.18236076 1019.2275835 734.22917961 1019.51319141 733.24711418 1019.80745411 C713.74088347 1025.25287043 693.85477217 1025.70144721 673.73413798 1025.63987826 C670.09897261 1025.63215449 666.46384343 1025.64209207 662.82868344 1025.64960825 C656.47967345 1025.66036578 650.1307402 1025.66016288 643.78172684 1025.65246677 C634.34010274 1025.64105334 624.89854259 1025.64695453 615.45691883 1025.6560917 C598.58811455 1025.67184052 581.71934448 1025.67053915 564.85053699 1025.66185496 C550.0885359 1025.65429314 535.32654731 1025.65234524 520.56454468 1025.65592289 C519.58341201 1025.65615204 518.60227934 1025.6563812 517.59141538 1025.6566173 C513.60818081 1025.65755139 509.62494625 1025.6585066 505.6417117 1025.65949659 C468.31577922 1025.66866287 430.98986846 1025.66037011 393.66393933 1025.6442059 C360.53703025 1025.62996916 327.41015577 1025.63124515 294.28324699 1025.64558887 C257.02185395 1025.66166907 219.76048009 1025.66801378 182.49908406 1025.65875208 C178.5236305 1025.65779 174.54817695 1025.65685148 170.57272339 1025.65592289 C169.59394229 1025.65568566 168.61516119 1025.65544843 167.60672005 1025.655204 C152.85705426 1025.65179843 138.10740236 1025.65576961 123.35773849 1025.66336155 C106.57949721 1025.67195484 89.80129534 1025.66976176 73.02305894 1025.65351932 C63.64473479 1025.6447388 54.26649606 1025.64409427 44.88817421 1025.65545784 C38.61081614 1025.66222217 32.33352605 1025.65793175 26.056178 1025.64494353 C22.48840586 1025.63785993 18.92080247 1025.63525527 15.3530361 1025.64616148 C-4.17123764 1025.70149376 -23.23025115 1024.78783379 -42.17695808 1019.69197559 C-43.11225349 1019.44294483 -44.0475489 1019.19391407 -45.0111866 1018.93733692 C-92.02965033 1005.76404361 -131.37861442 974.19865551 -155.86445808 932.25447559 C-156.24843758 931.60704395 -156.63241707 930.95961231 -157.0280323 930.29256153 C-171.75124271 905.19090045 -180.03855076 875.62185792 -179.99867916 846.52711868 C-180.00103139 845.35642406 -180.00338362 844.18572943 -180.00580713 842.97955921 C-180.01131247 839.73337797 -180.01237099 836.48723069 -180.01152972 833.24104602 C-180.01169978 829.70788969 -180.01761213 826.17474211 -180.02277058 822.64159018 C-180.03208283 815.63523525 -180.03601631 808.62888665 -180.03828955 801.62252631 C-180.04125528 793.22920346 -180.04995496 784.83588896 -180.05870383 776.44257051 C-180.07953584 756.15423848 -180.09001672 735.86590501 -180.09883344 715.57756478 C-180.10304238 705.97493429 -180.10826409 696.37230442 -180.11351797 686.76967445 C-180.13140855 653.88388978 -180.14640284 620.99810494 -180.15383816 588.11231613 C-180.15431291 586.04815442 -180.1547888 583.98399272 -180.15526582 581.91983101 C-180.1555022 580.89621391 -180.15573857 579.8725968 -180.15598211 578.81796099 C-180.15718328 573.63200427 -180.15839874 568.44604755 -180.1596241 563.26009083 C-180.15986425 562.23093023 -180.1601044 561.20176964 -180.16035183 560.14142236 C-180.16824035 526.79238251 -180.19166276 493.44337827 -180.22418004 460.09435396 C-180.25851406 424.81755245 -180.27819268 389.54077176 -180.2814824 354.26395327 C-180.28189992 350.38766642 -180.28237948 346.51137958 -180.28290558 342.63509274 C-180.28302877 341.68067533 -180.28315196 340.72625793 -180.28327889 339.74291879 C-180.28560663 324.41307407 -180.30124292 309.08327085 -180.32174743 293.7534409 C-180.34205062 278.32874975 -180.34746155 262.9041082 -180.33797679 247.47940617 C-180.33277905 238.32816233 -180.33855716 229.17708418 -180.36051146 220.02586435 C-180.37409752 213.89683402 -180.37287431 207.76791675 -180.36010951 201.63888509 C-180.35326422 198.15717451 -180.35236338 194.67577883 -180.36966959 191.19409739 C-180.49379244 160.53870579 -175.48661479 131.88391153 -161.86445808 104.25447559 C-161.50980476 103.52744434 -161.15515144 102.80041309 -160.78975105 102.05135059 C-155.707832 91.7366323 -149.85737015 82.37276963 -142.86445808 73.25447559 C-142.21605965 72.38178028 -141.56766121 71.50908497 -140.89961433 70.60994434 C-129.15696224 55.4723869 -114.80164537 41.8709988 -98.86445808 31.25447559 C-98.26778328 30.85615528 -97.67110847 30.45783497 -97.05635262 30.04744434 C-68.45526837 11.29880266 -34.31666829 -0.13618876 0 0 Z " fill="#49021F" transform="translate(179.86445808410645,-0.25447559356689453)"/>
<path d="M0 0 C1.32237419 0.00067978 1.32237419 0.00067978 2.67146301 0.00137329 C4.05674698 -0.00366463 4.05674698 -0.00366463 5.47001648 -0.00880432 C8.53921331 -0.01834503 11.60835577 -0.02025898 14.67756653 -0.02133179 C16.80126977 -0.02454216 18.92497278 -0.02790606 21.04867554 -0.03141785 C25.50676486 -0.0374169 29.96483478 -0.03925695 34.42292786 -0.03866577 C40.14771516 -0.0385641 45.87237858 -0.05221853 51.5971365 -0.06943798 C55.98505225 -0.08053264 60.37293782 -0.08258576 64.76086617 -0.08205605 C66.87207021 -0.08323991 68.98327494 -0.08768427 71.09446526 -0.09538841 C74.04209554 -0.10513748 76.98945376 -0.10233049 79.93708801 -0.09628296 C80.81664658 -0.10190247 81.69620514 -0.10752197 82.60241699 -0.11331177 C88.64065756 -0.08167826 88.64065756 -0.08167826 90.86897278 2.14663696 C91.06820381 4.59756848 91.1414212 6.93586235 91.12789249 9.38817215 C91.13158896 10.14676204 91.13528543 10.90535194 91.13909391 11.6869294 C91.14914321 14.25553688 91.1448327 16.82392649 91.14071655 19.39254761 C91.1449992 21.2420351 91.15016092 23.09152074 91.15613121 24.94100356 C91.17005614 30.04422222 91.17148626 35.14738145 91.17098796 40.25061631 C91.17261963 45.74632997 91.18573537 51.24201711 91.19752502 56.73771667 C91.21642663 66.26770173 91.22811278 75.79767391 91.23506355 85.32767487 C91.24521506 99.1131332 91.26726628 112.89855255 91.29244947 126.68399069 C91.33308656 149.05645948 91.365552 171.42893304 91.39216614 193.80142212 C91.39377938 195.15503946 91.39539282 196.5086568 91.39700644 197.86227414 C91.39780559 198.53295067 91.39860474 199.20362721 91.3994281 199.89462727 C91.40347164 203.28761082 91.40752 206.68059435 91.41157532 210.07357788 C91.41237851 210.74636558 91.41318171 211.41915327 91.41400925 212.11232847 C91.43270004 227.73167762 91.45396782 243.35102289 91.47615051 258.97036743 C91.47709845 259.6392371 91.47804639 260.30810678 91.47902306 260.99724523 C91.51159132 283.95405252 91.5482605 306.91085238 91.587192 329.86764979 C91.61025568 343.62099671 91.62920134 357.37433855 91.64285874 371.12769809 C91.65237492 380.55010131 91.66520846 389.97249602 91.68066759 399.39489135 C91.68944783 404.83551575 91.69654105 410.27612959 91.6993084 415.71676064 C91.70185529 420.69464532 91.70891034 425.67250222 91.71958064 430.65037593 C91.72262685 432.4539082 91.72397922 434.25744426 91.72349233 436.06097904 C91.72306388 438.50793138 91.72871403 440.95479709 91.7358942 443.40173721 C91.73429984 444.10575454 91.73270548 444.80977187 91.7310628 445.53512305 C91.75024672 449.51071104 92.1288806 453.24321588 92.86897278 457.14663696 C93.12738744 460.16681748 93.18928747 463.17907393 93.24397278 466.20913696 C93.28135559 466.99868774 93.3187384 467.78823853 93.35725403 468.60171509 C93.41611883 472.50314362 93.22671846 474.59290886 91.07209778 477.92788696 C86.44551502 481.13264185 81.55200698 482.79029157 76.24397278 484.58413696 C75.12893372 484.97174194 74.01389465 485.35934692 72.86506653 485.75869751 C69.53902701 486.90666691 66.20595142 488.03091433 62.86897278 489.14663696 C61.96050598 489.45311157 61.05203918 489.75958618 60.11604309 490.0753479 C57.70454267 490.88354157 55.28883287 491.67636258 52.86897278 492.45913696 C51.87002991 492.78579346 51.87002991 492.78579346 50.85090637 493.11904907 C37.36615798 497.34611673 23.53416425 499.87762054 9.58308411 501.9569397 C7.03965934 502.33664704 4.49825485 502.72818234 1.9568634 503.12124634 C0.29616114 503.37389078 -1.36464287 503.62586757 -3.02555847 503.87710571 C-3.76337051 503.99063889 -4.50118256 504.10417206 -5.26135254 504.22114563 C-15.4202357 505.72232669 -25.5719799 506.30912829 -35.83415222 506.38491821 C-36.91444702 506.39298996 -37.99474182 506.40106171 -39.10777283 506.40937805 C-41.38341216 506.42311202 -43.65907117 506.43388115 -45.93473816 506.44180298 C-48.21084342 506.45325123 -50.48692339 506.47358738 -52.76286316 506.50332642 C-89.92445962 506.98661076 -129.63681562 498.84058075 -161.13102722 478.14663696 C-161.70320984 477.77071411 -162.27539246 477.39479126 -162.86491394 477.00747681 C-171.69054472 471.13733905 -179.51322072 464.49715201 -187.13102722 457.14663696 C-187.84774597 456.48148071 -188.56446472 455.81632446 -189.30290222 455.13101196 C-198.97833304 445.92000183 -206.56952224 434.71560627 -213.13102722 423.14663696 C-213.45812683 422.57703247 -213.78522644 422.00742798 -214.12223816 421.42056274 C-225.12613859 401.96244613 -230.37563754 380.17454181 -233.13102722 358.14663696 C-233.21617584 357.49263916 -233.30132446 356.83864136 -233.38905334 356.16482544 C-234.08084391 350.51056679 -234.30610376 344.9338265 -234.33415222 339.24038696 C-234.33985229 338.31681396 -234.34555237 337.39324097 -234.35142517 336.44168091 C-234.36081678 334.49536258 -234.36738572 332.54902878 -234.3712616 330.60269165 C-234.38090991 327.68214808 -234.41196624 324.76232683 -234.44352722 321.84194946 C-234.5090346 310.25415636 -233.60574137 299.46379582 -231.13102722 288.14663696 C-230.94814148 287.22157349 -230.76525574 286.29651001 -230.576828 285.34341431 C-226.67701668 265.97897049 -218.99620598 246.66931384 -208.13102722 230.14663696 C-207.69032898 229.47584106 -207.24963074 228.80504517 -206.795578 228.11392212 C-200.72091461 218.98649865 -194.30033398 210.4996536 -186.61003113 202.66079712 C-185.01860615 201.03154361 -183.45635715 199.37679705 -181.89274597 197.72085571 C-164.71568072 179.76782953 -143.9075077 166.88674233 -121.13102722 157.14663696 C-120.03286682 156.67471924 -120.03286682 156.67471924 -118.91252136 156.19326782 C-112.30797155 153.44230912 -105.60186329 151.42533074 -98.69352722 149.58413696 C-96.99087708 149.12853394 -96.99087708 149.12853394 -95.25382996 148.66372681 C-85.62894048 146.15430073 -76.01175144 144.27617713 -66.13102722 143.14663696 C-65.0086969 143.00524292 -65.0086969 143.00524292 -63.86369324 142.86099243 C-55.14686189 141.89802246 -46.40866442 141.99556359 -37.65080261 142.01626587 C-34.93907637 142.02164579 -32.2275142 142.01628318 -29.51579285 142.00991821 C-27.76904769 142.01057875 -26.02230264 142.0118594 -24.27555847 142.01382446 C-23.47640518 142.01180023 -22.67725189 142.009776 -21.85388184 142.00769043 C-21.08916061 142.01084259 -20.32443939 142.01399475 -19.5365448 142.01724243 C-18.54706596 142.01843582 -18.54706596 142.01843582 -17.53759766 142.01965332 C-14.04092577 142.2041566 -10.60225273 142.68819441 -7.13102722 143.14663696 C-7.13240991 142.05027467 -7.13240991 142.05027467 -7.13382053 140.93176365 C-7.15587481 123.17282722 -7.1724383 105.41389351 -7.18283939 87.65494633 C-7.18800257 79.06696647 -7.19504566 70.47899573 -7.20646667 61.89102173 C-7.21641287 54.40848279 -7.22288049 46.92595046 -7.22511572 39.44340509 C-7.22642293 35.4789911 -7.22950948 31.51459601 -7.23675728 27.55018806 C-7.24351648 23.82303484 -7.24564439 20.09590839 -7.2441349 16.36874962 C-7.24441128 14.99688191 -7.246417 13.62501337 -7.2502327 12.25315094 C-7.2551683 10.38802733 -7.25342516 8.52288953 -7.25128174 6.65776062 C-7.25266443 5.08840806 -7.25266443 5.08840806 -7.25407505 3.48735142 C-7.00706506 -1.21147075 -4.00800039 0.02142572 0 0 Z " fill="#FE3265" transform="translate(685.1310272216797,224.85336303710938)"/>
<path d="M0 0 C0.88158783 -0.00686325 1.76317566 -0.0137265 2.67147827 -0.02079773 C5.59047476 -0.03912379 8.50893675 -0.0352199 11.42797852 -0.02954102 C13.45435258 -0.03410013 15.48072509 -0.03940489 17.50709534 -0.04542542 C21.75658444 -0.05436801 26.00588572 -0.05192043 30.25537109 -0.04199219 C35.7043304 -0.03050293 41.15264163 -0.05070768 46.60151577 -0.07990932 C50.78709541 -0.09824545 54.97251902 -0.09798399 59.15812874 -0.0922718 C61.16720552 -0.09211826 63.17629266 -0.09818962 65.18533134 -0.11056328 C67.9937607 -0.12542204 70.80098369 -0.11483389 73.609375 -0.09765625 C74.44119797 -0.10732422 75.27302094 -0.11699219 76.13005066 -0.12695312 C79.47397217 -0.08407051 81.80427592 0.00675024 84.58282048 1.96021938 C86.98990336 5.25285736 86.92258055 8.08079168 86.86995602 12.0065918 C86.87547018 12.77990719 86.88098435 13.55322258 86.88666561 14.34997177 C86.90032611 16.95686032 86.88532889 19.5628061 86.87059021 22.16967773 C86.87448074 24.05119243 86.88011917 25.9327042 86.88736111 27.81420898 C86.90216945 32.99667068 86.89190265 38.1788302 86.87762439 43.36128235 C86.86654898 48.94554162 86.8784458 54.5297573 86.88746643 60.11401367 C86.90142434 71.05837835 86.89382389 82.00262792 86.87879085 92.94698715 C86.86196063 105.68280991 86.86513723 118.41860376 86.86888493 131.1544342 C86.87494606 154.55994972 86.85914302 177.96539368 86.83369729 201.37088966 C86.81058148 222.74654667 86.80519371 244.12213605 86.81542969 265.49780273 C86.81803161 270.97111 86.82061659 276.44441726 86.82302761 281.91772461 C86.82332506 282.59151059 86.82362251 283.26529657 86.82392897 283.95950031 C86.83154037 301.81012027 86.82507573 319.66073456 86.81433159 337.51135254 C86.8128057 340.06933593 86.81128534 342.62731933 86.80977058 345.18530273 C86.80901277 346.44399422 86.80825496 347.7026857 86.80747418 348.99951935 C86.80272462 357.88436897 86.80458754 366.76920334 86.80883598 375.65405273 C86.81375461 386.47657214 86.80781425 397.29902148 86.78794169 408.12152481 C86.7780468 413.64700889 86.7729882 419.17238614 86.7808342 424.69787598 C86.78786268 429.75089537 86.78115306 434.80369867 86.76323057 439.85668945 C86.75916761 441.68973383 86.76021664 443.52279772 86.76674943 445.35583496 C86.77484201 447.83798993 86.76465842 450.31940653 86.7497015 452.80151367 C86.75643915 453.52144375 86.7631768 454.24137383 86.77011862 454.98311996 C86.73458747 458.00979266 86.50354867 460.14878101 85.08519322 462.84746552 C82.13491412 465.52396867 78.41195408 464.95786948 74.63110352 464.92163086 C73.29168198 464.93214478 73.29168198 464.93214478 71.92520142 464.94287109 C68.96878103 464.9604996 66.01331516 464.94881113 63.05688477 464.93530273 C61.00569474 464.93799625 58.95450596 464.9418775 56.90332031 464.94689941 C52.60249689 464.95280105 48.30200556 464.94420999 44.0012207 464.92553711 C38.48263619 464.90274734 32.96482975 464.91586684 27.4462738 464.93982697 C23.21010453 464.9542669 18.97412035 464.94968722 14.73794556 464.9393158 C12.70293079 464.93664352 10.66789933 464.93993579 8.63290405 464.94923401 C5.7907039 464.95936983 2.9497715 464.94394024 0.10766602 464.92163086 C-0.73710297 464.92972778 -1.58187195 464.93782471 -2.45223999 464.94616699 C-8.1237388 464.86350607 -8.1237388 464.86350607 -10.34659827 462.84861618 C-12.10000111 459.51041692 -12.04394742 456.46324743 -12.00813866 452.78310299 C-12.01249898 452.00779963 -12.0168593 451.23249627 -12.02135175 450.43369886 C-12.03235222 447.82020215 -12.02186387 445.20722813 -12.01156616 442.59373474 C-12.01502083 440.70738407 -12.0197841 438.82103542 -12.0257479 436.93469101 C-12.03831369 431.73894643 -12.03206222 426.54336639 -12.02278924 421.34762108 C-12.01602192 415.74906982 -12.02646841 410.15054752 -12.034729 404.55200195 C-12.04809308 393.57991932 -12.04517678 382.60789813 -12.03649108 371.63581305 C-12.02972579 362.72193096 -12.0287928 353.80806613 -12.03206253 344.89418221 C-12.03252223 343.62725025 -12.03298193 342.36031829 -12.03345556 341.05499445 C-12.0344147 338.48154878 -12.03538734 335.9081031 -12.03637333 333.33465744 C-12.04469074 309.87312605 -12.03605433 286.411636 -12.02034554 262.950112 C-12.00610655 241.52075982 -12.00738358 220.0914611 -12.02172852 198.66210938 C-12.03778282 174.59862896 -12.04411264 150.53518506 -12.03489172 126.47169739 C-12.03393604 123.9078341 -12.03299293 121.3439708 -12.03206253 118.7801075 C-12.03136829 116.88771304 -12.03136829 116.88771304 -12.03066003 114.95708839 C-12.02806532 106.04922451 -12.03245143 97.14137955 -12.03950119 88.2335186 C-12.04789808 77.38462468 -12.04567425 66.53579591 -12.02965896 55.68690949 C-12.02175203 50.14736964 -12.01872573 44.60793858 -12.02860641 39.06839943 C-12.03750378 34.00371808 -12.03270289 28.93924702 -12.01667376 23.87458492 C-12.01330483 22.03617279 -12.01506694 20.19774313 -12.02230112 18.35934215 C-12.03134164 15.87235778 -12.02215156 13.38610653 -12.00813866 10.89916134 C-12.01516216 10.1749999 -12.02218565 9.45083847 -12.02942199 8.70473275 C-11.99707387 5.85870281 -11.93846898 3.86918242 -10.34380496 1.45983845 C-7.22594947 -0.46159923 -3.55620885 -0.01919872 0 0 Z " fill="#FE3265" transform="translate(295.630615234375,261.595947265625)"/>
<path d="M0 0 C0.93457031 -0.020625 1.86914062 -0.04125 2.83203125 -0.0625 C11.1559347 -0.10780015 17.16744182 1.41088039 25.75 3.25 C25.75 66.94 25.75 130.63 25.75 196.25 C18.23554435 198.39698733 11.49929913 198.98650226 3.75 199.25 C2.8223584 199.28399902 1.8947168 199.31799805 0.93896484 199.35302734 C-25.09880556 200.18209487 -51.03344126 196.71707183 -71.375 178.9375 C-73.0170594 177.39293787 -74.64278119 175.83078429 -76.25 174.25 C-77.301875 173.21746094 -77.301875 173.21746094 -78.375 172.1640625 C-95.99476439 153.64954445 -101.43807135 128.0788867 -101.43530273 103.31640625 C-101.43747409 101.15083698 -101.45563556 98.98579105 -101.47460938 96.8203125 C-101.58638514 69.85830403 -93.79474455 48.49152618 -75.125 28.75 C-54.55068557 8.84277085 -28.21123374 0.15311389 0 0 Z " fill="#49021F" transform="translate(652.25,447.75)"/>
</svg>
